<svg xmlns="http://www.w3.org/2000/svg" width="1760" height="1400" viewBox="0 0 1760 1400">
<rect width="100%" height="100%" fill="#faf8f2" />
<text x="880.0" y="60" font-family="DejaVu Sans, Noto Sans SC, sans-serif" font-size="50" font-weight="bold" text-anchor="middle" fill="#111">数据迁移泳道图</text>
<rect x="85" y="78" width="270" height="58" fill="#f6d365" stroke="#333" stroke-width="2" rx="10" />
<text x="220" y="122" font-family="DejaVu Sans, Noto Sans SC, sans-serif" font-size="38" font-weight="bold" text-anchor="middle" fill="#111">SVS / 成员视图</text>
<line x1="220" y1="155" x2="220" y2="1340" stroke="#777" stroke-width="2" stroke-dasharray="10,8" />
<rect x="595" y="78" width="270" height="58" fill="#f28482" stroke="#333" stroke-width="2" rx="10" />
<text x="730" y="122" font-family="DejaVu Sans, Noto Sans SC, sans-serif" font-size="38" font-weight="bold" text-anchor="middle" fill="#111">旧 owner</text>
<line x1="730" y1="155" x2="730" y2="1340" stroke="#777" stroke-width="2" stroke-dasharray="10,8" />
<rect x="1085" y="78" width="270" height="58" fill="#84a59d" stroke="#333" stroke-width="2" rx="10" />
<text x="1220" y="122" font-family="DejaVu Sans, Noto Sans SC, sans-serif" font-size="38" font-weight="bold" text-anchor="middle" fill="#111">新 owner</text>
<line x1="1220" y1="155" x2="1220" y2="1340" stroke="#777" stroke-width="2" stroke-dasharray="10,8" />
<rect x="1495" y="78" width="270" height="58" fill="#8ecae6" stroke="#333" stroke-width="2" rx="10" />
<text x="1630" y="122" font-family="DejaVu Sans, Noto Sans SC, sans-serif" font-size="38" font-weight="bold" text-anchor="middle" fill="#111">NDN 路由</text>
<line x1="1630" y1="155" x2="1630" y2="1340" stroke="#777" stroke-width="2" stroke-dasharray="10,8" />
<rect x="40" y="186" width="360" height="64" fill="#fff4cf" stroke="#c29b1f" stroke-width="2" rx="8" />
<text x="220.0" y="228.0" font-family="DejaVu Sans, Noto Sans SC, sans-serif" font-size="29" font-weight="normal" text-anchor="middle" fill="#111">SVS 更新视图</text>
<line x1="220" y1="344" x2="730" y2="344" stroke="#b8860b" stroke-width="2.5" />
<polygon points="730,344 720,339 720,349" fill="#b8860b" />
<text x="475.0" y="324" font-family="DejaVu Sans, Noto Sans SC, sans-serif" font-size="30" font-weight="normal" text-anchor="middle" fill="#b8860b">触发重算</text>
<line x1="220" y1="386" x2="1220" y2="386" stroke="#b8860b" stroke-width="2.5" />
<polygon points="1220,386 1210,381 1210,391" fill="#b8860b" />
<text x="720.0" y="366" font-family="DejaVu Sans, Noto Sans SC, sans-serif" font-size="30" font-weight="normal" text-anchor="middle" fill="#b8860b">触发重算</text>
<rect x="520" y="434" width="420" height="64" fill="#ffe3e3" stroke="#c95d63" stroke-width="2" rx="8" />
<text x="730.0" y="476.0" font-family="DejaVu Sans, Noto Sans SC, sans-serif" font-size="29" font-weight="normal" text-anchor="middle" fill="#111">Maglev 识别归属变化</text>
<rect x="1010" y="434" width="420" height="64" fill="#e0f0eb" stroke="#4f7f76" stroke-width="2" rx="8" />
<text x="1220.0" y="476.0" font-family="DejaVu Sans, Noto Sans SC, sans-serif" font-size="29" font-weight="normal" text-anchor="middle" fill="#111">Maglev 识别归属变化</text>
<rect x="995" y="546" width="450" height="84" fill="#e0f0eb" stroke="#4f7f76" stroke-width="2" rx="8" />
<text x="1220.0" y="598.0" font-family="DejaVu Sans, Noto Sans SC, sans-serif" font-size="29" font-weight="normal" text-anchor="middle" fill="#111">创建本地服务
注册名称前缀</text>
<rect x="520" y="674" width="420" height="82" fill="#ffe3e3" stroke="#c95d63" stroke-width="2" rx="8" />
<text x="730.0" y="725.0" font-family="DejaVu Sans, Noto Sans SC, sans-serif" font-size="29" font-weight="normal" text-anchor="middle" fill="#111">等待片刻
确保新 owner 就绪</text>
<line x1="730" y1="840" x2="1220" y2="840" stroke="#d1495b" stroke-width="2.5" />
<polygon points="1220,840 1210,835 1210,845" fill="#d1495b" />
<text x="975.0" y="820" font-family="DejaVu Sans, Noto Sans SC, sans-serif" font-size="30" font-weight="normal" text-anchor="middle" fill="#d1495b">INSERT | NO_REPLICATE | MIGRATE</text>
<rect x="995" y="922" width="450" height="82" fill="#e0f0eb" stroke="#4f7f76" stroke-width="2" rx="8" />
<text x="1220.0" y="973.0" font-family="DejaVu Sans, Noto Sans SC, sans-serif" font-size="29" font-weight="normal" text-anchor="middle" fill="#111">收到迁移命令
准备抓取数据</text>
<line x1="1220" y1="1088" x2="1630" y2="1088" stroke="#2f5bea" stroke-width="2.5" />
<polygon points="1630,1088 1620,1083 1620,1093" fill="#2f5bea" />
<text x="1425.0" y="1068" font-family="DejaVu Sans, Noto Sans SC, sans-serif" font-size="30" font-weight="normal" text-anchor="middle" fill="#2f5bea">发送 Interest</text>
<line x1="1630" y1="1212" x2="730" y2="1212" stroke="#4c78a8" stroke-width="2.5" stroke-dasharray="8,6" />
<polygon points="730,1212 740,1207 740,1217" fill="#4c78a8" />
<text x="1180.0" y="1192" font-family="DejaVu Sans, Noto Sans SC, sans-serif" font-size="30" font-weight="normal" text-anchor="middle" fill="#4c78a8">名称路由</text>
<line x1="730" y1="1294" x2="1220" y2="1294" stroke="#2a9d8f" stroke-width="2.5" />
<polygon points="1220,1294 1210,1289 1210,1299" fill="#2a9d8f" />
<text x="975.0" y="1274" font-family="DejaVu Sans, Noto Sans SC, sans-serif" font-size="30" font-weight="normal" text-anchor="middle" fill="#2a9d8f">返回 Data</text>
<line x1="730" y1="1400" x2="730" y2="1448" stroke="#c95d63" stroke-width="2.5" />
<ellipse cx="730" cy="1490" rx="90.0" ry="34.0" fill="#ffe3e3" stroke="#c95d63" stroke-width="2" />
<text x="730" y="1500" font-family="DejaVu Sans, Noto Sans SC, sans-serif" font-size="30" font-weight="bold" text-anchor="middle" fill="#c95d63">结束</text>
</svg>